<svg aria-hidden="true" style="position: absolute; width: 0; height: 0; overflow: hidden;" version="1.1" xmlns="http://www.w3.org/2000/svg" xmlns:xlink="http://www.w3.org/1999/xlink">
<defs>

<symbol id="icon-heart" viewBox="0 0 24 24">
  <path d="M12 21.35l-1.45-1.32C5.4 15.36 2 12.28 2 8.5 2 5.42 4.42 3 7.5 3c1.74 0 3.41.81 4.5 2.09C13.09 3.81 14.76 3 16.5 3 19.58 3 22 5.42 22 8.5c0 3.78-3.4 6.86-8.55 11.54L12 21.35z"></path>
</symbol>

<symbol id="icon-search" viewBox="0 0 34 32">
    <path fill="currentColor" d="M25.029 21.836l6.754 6.764c0.302 0.336 0.287 0.849-0.034 1.167l-1.182 1.184c-0.159 0.16-0.374 0.25-0.6 0.25s-0.441-0.090-0.6-0.25l-6.754-6.764c-0.187-0.187-0.356-0.391-0.507-0.609l-1.266-1.691c-2.095 1.676-4.698 2.588-7.379 2.587-5.526 0.019-10.327-3.798-11.562-9.191s1.427-10.924 6.409-13.317 10.955-1.011 14.383 3.329c3.428 4.34 3.396 10.479-0.078 14.783l1.689 1.167c0.264 0.169 0.507 0.368 0.726 0.592zM5.020 12.637c0 4.669 3.78 8.455 8.443 8.455 2.239 0 4.387-0.891 5.97-2.476s2.473-3.736 2.473-5.978c0-4.669-3.78-8.455-8.443-8.455s-8.443 3.785-8.443 8.455z"></path>
</symbol>

<symbol id="icon-personal" viewBox="0 0 32 32">
    <path fill="currentColor" d="M23.275 8.727c0 4.017-3.257 7.273-7.275 7.273s-7.275-3.256-7.275-7.273 3.257-7.273 7.275-7.273c4.018 0 7.275 3.256 7.275 7.273zM20.365 8.727c0-2.41-1.954-4.364-4.365-4.364s-4.365 1.954-4.365 4.364 1.954 4.364 4.365 4.364c2.411 0 4.365-1.954 4.365-4.364zM30.39 28.436c0.227 0.45 0.204 0.986-0.059 1.415s-0.731 0.692-1.236 0.694h-26.19c-0.504-0.002-0.972-0.264-1.236-0.694s-0.286-0.965-0.059-1.415l2.75-5.513c1.233-2.461 3.751-4.014 6.504-4.015h10.272c2.753 0 5.27 1.554 6.504 4.015l2.75 5.513zM6.965 24.233l-1.702 3.404h21.476l-1.702-3.404c-0.738-1.478-2.247-2.412-3.899-2.415h-10.272c-1.652 0.002-3.161 0.937-3.899 2.415z"></path>
</symbol>

<symbol id="icon-big-basket" viewBox="0 0 32 32">
  <path fill="currentColor" stroke="currentColor" stroke-width="0.2" d="M10.31 23.736h0.001c0.001 0 0.002-0 0.004-0h16.997c0.418 0 0.786-0.278 0.901-0.68l3.75-13.125c0.081-0.283 0.024-0.587-0.153-0.822s-0.454-0.373-0.748-0.373h-22.915l-0.67-3.016c-0.095-0.429-0.476-0.734-0.915-0.734h-5.625c-0.518 0-0.938 0.42-0.938 0.938s0.42 0.938 0.938 0.938h4.873c0.119 0.534 3.207 14.432 3.385 15.232-0.996 0.433-1.695 1.426-1.695 2.58 0 1.551 1.262 2.813 2.813 2.813h17c0.518 0 0.938-0.42 0.938-0.938s-0.42-0.937-0.938-0.937h-17c-0.517 0-0.938-0.421-0.938-0.938s0.419-0.936 0.935-0.937zM29.82 10.61l-3.214 11.25h-15.541l-2.5-11.25h21.255z"></path>
</symbol>

<symbol id="icon-location" viewBox="0 0 32 32">
<path d="M16 0c-5.523 0-10 4.477-10 10 0 10 10 22 10 22s10-12 10-22c0-5.523-4.477-10-10-10zM16 16c-3.314 0-6-2.686-6-6s2.686-6 6-6 6 2.686 6 6-2.686 6-6 6z"></path>
</symbol>

<symbol id="icon-facebook" viewBox="0 0 32 32">
  <path stroke-width="0.8" d="M19 6h5v-6h-5c-3.86 0-7 3.14-7 7v3h-4v6h4v16h6v-16h5l1-6h-6v-3c0-0.542 0.458-1 1-1z"></path>
</symbol>

<symbol id="icon-instagram" viewBox="0 0 32 32">
  <path stroke-width="0.8" d="M16 2.881c4.275 0 4.781 0.019 6.462 0.094 1.563 0.069 2.406 0.331 2.969 0.55 0.744 0.288 1.281 0.638 1.837 1.194 0.563 0.563 0.906 1.094 1.2 1.838 0.219 0.563 0.481 1.412 0.55 2.969 0.075 1.688 0.094 2.194 0.094 6.463s-0.019 4.781-0.094 6.463c-0.069 1.563-0.331 2.406-0.55 2.969-0.288 0.744-0.637 1.281-1.194 1.837-0.563 0.563-1.094 0.906-1.837 1.2-0.563 0.219-1.413 0.481-2.969 0.55-1.688 0.075-2.194 0.094-6.463 0.094s-4.781-0.019-6.463-0.094c-1.563-0.069-2.406-0.331-2.969-0.55-0.744-0.288-1.281-0.637-1.838-1.194-0.563-0.563-0.906-1.094-1.2-1.837-0.219-0.563-0.481-1.413-0.55-2.969-0.075-1.688-0.094-2.194-0.094-6.463s0.019-4.781 0.094-6.463c0.069-1.563 0.331-2.406 0.55-2.969 0.288-0.744 0.638-1.281 1.194-1.838 0.563-0.563 1.094-0.906 1.838-1.2 0.563-0.219 1.412-0.481 2.969-0.55 1.681-0.075 2.188-0.094 6.463-0.094zM16 0c-4.344 0-4.887 0.019-6.594 0.094-1.7 0.075-2.869 0.35-3.881 0.744-1.056 0.412-1.95 0.956-2.837 1.85-0.894 0.888-1.438 1.781-1.85 2.831-0.394 1.019-0.669 2.181-0.744 3.881-0.075 1.713-0.094 2.256-0.094 6.6s0.019 4.887 0.094 6.594c0.075 1.7 0.35 2.869 0.744 3.881 0.413 1.056 0.956 1.95 1.85 2.837 0.887 0.887 1.781 1.438 2.831 1.844 1.019 0.394 2.181 0.669 3.881 0.744 1.706 0.075 2.25 0.094 6.594 0.094s4.888-0.019 6.594-0.094c1.7-0.075 2.869-0.35 3.881-0.744 1.050-0.406 1.944-0.956 2.831-1.844s1.438-1.781 1.844-2.831c0.394-1.019 0.669-2.181 0.744-3.881 0.075-1.706 0.094-2.25 0.094-6.594s-0.019-4.887-0.094-6.594c-0.075-1.7-0.35-2.869-0.744-3.881-0.394-1.063-0.938-1.956-1.831-2.844-0.887-0.887-1.781-1.438-2.831-1.844-1.019-0.394-2.181-0.669-3.881-0.744-1.712-0.081-2.256-0.1-6.6-0.1v0z"></path>
  <path stroke-width="0.8" d="M16 7.781c-4.537 0-8.219 3.681-8.219 8.219s3.681 8.219 8.219 8.219 8.219-3.681 8.219-8.219c0-4.537-3.681-8.219-8.219-8.219zM16 21.331c-2.944 0-5.331-2.387-5.331-5.331s2.387-5.331 5.331-5.331c2.944 0 5.331 2.387 5.331 5.331s-2.387 5.331-5.331 5.331z"></path>
  <path stroke-width="0.8" d="M26.462 7.456c0 1.060-0.859 1.919-1.919 1.919s-1.919-0.859-1.919-1.919c0-1.060 0.859-1.919 1.919-1.919s1.919 0.859 1.919 1.919z"></path>
</symbol>

<symbol id="icon-whatsapp" viewBox="0 0 32 32">
<path d="M27.281 4.65c-2.994-3-6.975-4.65-11.219-4.65-8.738 0-15.85 7.112-15.85 15.856 0 2.794 0.731 5.525 2.119 7.925l-2.25 8.219 8.406-2.206c2.319 1.262 4.925 1.931 7.575 1.931h0.006c0 0 0 0 0 0 8.738 0 15.856-7.113 15.856-15.856 0-4.238-1.65-8.219-4.644-11.219zM16.069 29.050v0c-2.369 0-4.688-0.637-6.713-1.837l-0.481-0.288-4.987 1.306 1.331-4.863-0.313-0.5c-1.325-2.094-2.019-4.519-2.019-7.012 0-7.269 5.912-13.181 13.188-13.181 3.519 0 6.831 1.375 9.319 3.862 2.488 2.494 3.856 5.8 3.856 9.325-0.006 7.275-5.919 13.188-13.181 13.188zM23.294 19.175c-0.394-0.2-2.344-1.156-2.706-1.288s-0.625-0.2-0.894 0.2c-0.262 0.394-1.025 1.288-1.256 1.556-0.231 0.262-0.462 0.3-0.856 0.1s-1.675-0.619-3.188-1.969c-1.175-1.050-1.975-2.35-2.206-2.744s-0.025-0.613 0.175-0.806c0.181-0.175 0.394-0.463 0.594-0.694s0.262-0.394 0.394-0.662c0.131-0.262 0.069-0.494-0.031-0.694s-0.894-2.15-1.219-2.944c-0.319-0.775-0.65-0.669-0.894-0.681-0.231-0.012-0.494-0.012-0.756-0.012s-0.694 0.1-1.056 0.494c-0.363 0.394-1.387 1.356-1.387 3.306s1.419 3.831 1.619 4.1c0.2 0.262 2.794 4.269 6.769 5.981 0.944 0.406 1.681 0.65 2.256 0.837 0.95 0.3 1.813 0.256 2.494 0.156 0.762-0.113 2.344-0.956 2.675-1.881s0.331-1.719 0.231-1.881c-0.094-0.175-0.356-0.275-0.756-0.475z"></path>
</symbol>

<symbol id="icon-shape" viewBox="0 0 32 32">
<path d="M16 32c-8.837 0-16-7.164-16-16s7.163-16 16-16c8.836 0 16 7.163 16 16s-7.164 16-16 16zM15.59 14.259l-4.053-4.053c-0.481-0.481-1.26-0.481-1.741 0s-0.481 1.26 0 1.741l4.053 4.053-4.053 4.053c-0.481 0.481-0.481 1.26 0 1.741s1.26 0.481 1.741 0l4.053-4.053 4.053 4.053c0.481 0.481 1.26 0.481 1.741 0s0.481-1.26 0-1.741l-4.053-4.053 4.053-4.053c0.481-0.481 0.481-1.26 0-1.741s-1.26-0.481-1.74 0l-4.053 4.053zM2.462 16c0 7.477 6.061 13.538 13.538 13.538s13.538-6.061 13.538-13.538c0-7.477-6.061-13.538-13.538-13.538s-13.538 6.061-13.538 13.538z"></path>
</symbol>

<symbol id="icon-lit-basket" viewBox="0 0 32 32">
<path d="M31.937 28.621l-2.604-24.5c0-1.54-1.193-2.788-2.667-2.788h-21.333c-1.473 0-2.667 1.248-2.667 2.788l-2.604 24.5c-0.039 0.191-0.063 0.387-0.063 0.591 0 1.54 1.193 2.788 2.667 2.788h26.667c1.473 0 2.667-1.248 2.667-2.788 0-0.204-0.024-0.4-0.063-0.591zM22.667 8.175v1.522c0 3.843-2.991 6.97-6.667 6.97s-6.667-3.127-6.667-6.97v-1.522c-0.775-0.287-1.333-1.054-1.333-1.963 0-1.154 0.896-2.091 2-2.091s2 0.937 2 2.091v3.485c0 2.306 1.795 4.182 4 4.182s4-1.876 4-4.182v-3.485c0-1.154 0.896-2.091 2-2.091s2 0.937 2 2.091c0 0.909-0.559 1.676-1.333 1.963z"></path>
</symbol>

<symbol id="icon-glass" viewBox="0 0 32 32">
<path d="M13.714 0c7.57 0 13.714 6.144 13.714 13.714s-6.144 13.714-13.714 13.714c-7.57 0-13.714-6.144-13.714-13.714s6.144-13.714 13.714-13.714zM13.714 24.381c5.893 0 10.667-4.774 10.667-10.667 0-5.894-4.774-10.667-10.667-10.667-5.894 0-10.667 4.773-10.667 10.667 0 5.893 4.773 10.667 10.667 10.667zM26.644 24.489l4.311 4.309-2.156 2.156-4.309-4.311 2.155-2.155z"></path>
</symbol>

<symbol id="icon-trash" viewBox="0 0 23 32">
<path stroke-linejoin="round" stroke-linecap="round" stroke-miterlimit="4" stroke-width="2.9091" d="M5.818 7.273v-2.909c0-0.772 0.306-1.511 0.852-2.057s1.285-0.852 2.057-0.852h5.818c0.771 0 1.511 0.306 2.057 0.852s0.852 1.286 0.852 2.057v2.909M21.818 7.273v20.364c0 0.771-0.306 1.511-0.852 2.057s-1.286 0.852-2.057 0.852h-14.545c-0.772 0-1.511-0.306-2.057-0.852s-0.852-1.286-0.852-2.057v-20.364h20.364z"></path>
</symbol>

<symbol id="icon-arrow-r" viewBox="0 0 18 32">
<path stroke-linejoin="round" stroke-linecap="round" stroke-miterlimit="4" stroke-width="3.4286" d="M2.286 29.714l13.714-13.714-13.714-13.714"></path>
</symbol>

<symbol id="icon-arrow-l" viewBox="0 0 17 32">
<path stroke-linejoin="round" stroke-linecap="round" stroke-miterlimit="4" stroke-width="3.2" d="M15.467 2.133l-13.867 13.867 13.867 13.867"></path>
</symbol>

<symbol id="icon-arrow-up" viewBox="0 0 32 18">
<path stroke-linejoin="round" stroke-linecap="round" stroke-miterlimit="4" stroke-width="3.4286" d="M29.714 15.714l-13.714-13.714-13.714 13.714"></path>
</symbol>

<symbol id="icon-arrow-down" viewBox="0 0 32 18">
<path stroke-linejoin="round" stroke-linecap="round" stroke-miterlimit="4" stroke-width="3.4286" d="M29.714 2.286l-13.714 13.714-13.714-13.714"></path>
</symbol>
</defs>
</svg>

